<?xml version="1.0" standalone="no"?><!DOCTYPE svg PUBLIC "-//W3C//DTD SVG 1.1//EN" "http://www.w3.org/Graphics/SVG/1.1/DTD/svg11.dtd"><svg t="1781005749689" class="icon" viewBox="0 0 1024 1024" version="1.1" xmlns="http://www.w3.org/2000/svg" p-id="1519" xmlns:xlink="http://www.w3.org/1999/xlink" width="64" height="64"><path d="M408.528 47.008A49.888 49.888 0 0 1 469.6 11.76a49.76 49.76 0 0 1 35.2 60.992L272.72 937.2a49.888 49.888 0 0 1-61.056 35.248 49.76 49.76 0 0 1-35.2-60.976L408.512 47.008z" fill="#FCEEAF" p-id="1520"></path><path d="M272.704 937.2a49.888 49.888 0 0 1-61.056 35.248 49.76 49.76 0 0 1-35.2-60.976L408.512 47.008A49.888 49.888 0 0 1 469.6 11.76a49.76 49.76 0 0 1 35.2 60.992L272.72 937.2z m-23.2-6.192L481.632 66.544a25.84 25.84 0 0 0-0.32-14.48 25.888 25.888 0 0 0-5.536-9.6 25.696 25.696 0 0 0-22.624-8.16 25.76 25.76 0 0 0-13.888 6.512 25.76 25.76 0 0 0-7.52 12.4L199.6 917.664a25.856 25.856 0 0 0 0.32 14.496 25.84 25.84 0 0 0 47.264 4.64c0.992-1.824 1.76-3.744 2.32-5.792z" fill="#000000" p-id="1521"></path><path d="M130.544 621.28c17.088-63.68 104.224-95.696 194.592-71.52 90.384 24.16 149.792 95.36 132.704 159.04-17.104 63.68-104.224 95.68-194.608 71.52-90.384-24.16-149.792-95.376-132.688-159.04z" fill="#FA7F45" p-id="1522"></path><path d="M325.136 549.76c90.384 24.16 149.792 95.36 132.704 159.04-17.104 63.68-104.224 95.68-194.608 71.52-90.384-24.16-149.792-95.376-132.688-159.04 17.088-63.68 104.224-95.696 194.592-71.52z m-6.224 23.168a205.856 205.856 0 0 0-59.248-7.168c-18.528 0.528-35.536 3.632-51.04 9.328-14.784 5.44-26.944 12.768-36.496 22a67.168 67.168 0 0 0-16.128 23.52 62.032 62.032 0 0 0-3.744 13.952 67.04 67.04 0 0 0 2.176 28.416c3.648 12.752 10.512 25.168 20.592 37.264 10.56 12.656 23.744 23.84 39.52 33.536a205.68 205.68 0 0 0 54.912 23.36c19.936 5.328 39.68 7.728 59.248 7.168 18.528-0.512 35.552-3.632 51.04-9.328 14.784-5.44 26.96-12.768 36.512-21.984a67.168 67.168 0 0 0 16.112-23.52 62.016 62.016 0 0 0 3.744-13.952 67.04 67.04 0 0 0-2.176-28.416c-3.648-12.768-10.512-25.184-20.592-37.28-10.56-12.64-23.744-23.84-39.52-33.536a205.68 205.68 0 0 0-54.912-23.36z" fill="#000000" p-id="1523"></path><path d="M187.28 409.92c17.104-63.68 104.224-95.68 194.608-71.52 90.368 24.16 149.792 95.36 132.688 159.04-17.088 63.68-104.224 95.68-194.592 71.52-90.384-24.16-149.792-95.36-132.704-159.04z" fill="#FA7F45" p-id="1524"></path><path d="M381.888 338.4c90.368 24.16 149.792 95.36 132.688 159.04-17.088 63.68-104.224 95.68-194.592 71.52-90.384-24.16-149.792-95.36-132.704-159.04 17.104-63.68 104.224-95.68 194.608-71.52z m-6.24 23.184a205.856 205.856 0 0 0-59.232-7.184c-18.528 0.528-35.552 3.648-51.04 9.344-14.784 5.44-26.96 12.752-36.512 21.984a67.168 67.168 0 0 0-16.112 23.52 62.032 62.032 0 0 0-3.744 13.952 67.04 67.04 0 0 0 2.176 28.416c3.648 12.768 10.512 25.184 20.592 37.264 10.56 12.672 23.744 23.84 39.52 33.552a205.68 205.68 0 0 0 54.912 23.36c19.936 5.328 39.68 7.712 59.248 7.168 18.528-0.528 35.536-3.648 51.04-9.344 14.784-5.44 26.944-12.752 36.496-21.984a67.168 67.168 0 0 0 16.128-23.52 62.016 62.016 0 0 0 3.744-13.952 67.04 67.04 0 0 0-2.176-28.416c-3.648-12.752-10.512-25.184-20.592-37.264-10.56-12.656-23.744-23.84-39.52-33.552a205.68 205.68 0 0 0-54.912-23.36z" fill="#000000" p-id="1525"></path><path d="M243.584 507.36l173.408 46.368a39.744 39.744 0 0 1 28.128 48.704 39.84 39.84 0 0 1-48.752 28.16l-173.408-46.4a39.744 39.744 0 0 1-28.128-48.688 39.84 39.84 0 0 1 48.752-28.16z" fill="#D6E322" p-id="1526"></path><path d="M430.56 546.16a51.744 51.744 0 0 0-10.448-4.032l-173.408-46.368a51.776 51.776 0 0 0-29.776 0.896 51.872 51.872 0 0 0-24.512 17.328 51.52 51.52 0 0 0-10.912 29.472 51.424 51.424 0 0 0 6.896 28.224 51.728 51.728 0 0 0 20.992 20.08c3.296 1.712 6.784 3.04 10.448 4.032l173.408 46.368a51.776 51.776 0 0 0 29.792-0.88 51.872 51.872 0 0 0 24.512-17.328 51.552 51.552 0 0 0 10.448-38.944 51.296 51.296 0 0 0-6.448-18.768 51.296 51.296 0 0 0-20.992-20.08z m-190.08-27.216l173.408 46.368a27.456 27.456 0 0 1 16.88 12.944 27.552 27.552 0 0 1 2.768 21.072 27.488 27.488 0 0 1-12.96 16.88 27.632 27.632 0 0 1-21.104 2.784L226.08 572.624a27.808 27.808 0 0 1-13.44-8.224 27.824 27.824 0 0 1 27.856-45.456z" fill="#000000" p-id="1527"></path><path d="M244.032 198.56c17.088-63.664 104.224-95.68 194.592-71.52 90.384 24.16 149.792 95.376 132.704 159.04-17.104 63.68-104.224 95.696-194.608 71.52-90.368-24.16-149.792-95.36-132.688-159.04z" fill="#FA7F45" p-id="1528"></path><path d="M438.624 127.04c90.384 24.16 149.792 95.376 132.704 159.04-17.104 63.68-104.224 95.696-194.608 71.52-90.368-24.16-149.792-95.36-132.688-159.04 17.088-63.664 104.224-95.68 194.592-71.52z m-6.224 23.184a205.856 205.856 0 0 0-59.248-7.168c-18.528 0.528-35.536 3.632-51.04 9.328-14.784 5.44-26.944 12.768-36.496 22a67.168 67.168 0 0 0-16.128 23.52 62.032 62.032 0 0 0-3.744 13.952 67.04 67.04 0 0 0 2.176 28.416c3.648 12.752 10.512 25.168 20.592 37.248 10.56 12.672 23.744 23.856 39.52 33.552a205.68 205.68 0 0 0 54.912 23.36c19.952 5.328 39.68 7.728 59.248 7.168 18.528-0.528 35.552-3.632 51.04-9.328 14.784-5.44 26.96-12.768 36.512-22a67.168 67.168 0 0 0 16.112-23.52 62.016 62.016 0 0 0 3.744-13.952 67.04 67.04 0 0 0-2.176-28.416c-3.648-12.752-10.512-25.168-20.592-37.248-10.56-12.672-23.744-23.856-39.52-33.552a205.68 205.68 0 0 0-54.912-23.36z" fill="#000000" p-id="1529"></path><path d="M300.336 296l173.408 46.368a39.744 39.744 0 0 1 28.128 48.704 39.84 39.84 0 0 1-48.752 28.16l-173.408-46.384a39.744 39.744 0 0 1-28.128-48.704 39.84 39.84 0 0 1 48.752-28.16z" fill="#D6E322" p-id="1530"></path><path d="M487.296 334.816a51.744 51.744 0 0 0-10.432-4.032l-173.408-46.368a51.776 51.776 0 0 0-29.792 0.88 51.872 51.872 0 0 0-24.512 17.328 51.52 51.52 0 0 0-10.896 29.488 51.424 51.424 0 0 0 6.88 28.224 51.728 51.728 0 0 0 21.008 20.08c3.296 1.696 6.784 3.04 10.448 4.032l173.408 46.368a51.776 51.776 0 0 0 29.776-0.896 51.872 51.872 0 0 0 24.512-17.328 51.552 51.552 0 0 0 10.464-38.944 51.296 51.296 0 0 0-6.448-18.752 51.296 51.296 0 0 0-21.008-20.08z m-190.08-27.232l173.424 46.368a27.456 27.456 0 0 1 16.864 12.944 27.552 27.552 0 0 1 2.768 21.088 27.488 27.488 0 0 1-12.96 16.864 27.632 27.632 0 0 1-21.088 2.784L282.816 361.28a27.808 27.808 0 0 1-13.44-8.224 27.824 27.824 0 0 1 27.84-45.44z" fill="#000000" p-id="1531"></path><path d="M767.296 86.8a49.888 49.888 0 0 1 61.056-35.248 49.76 49.76 0 0 1 35.2 60.976L631.488 976.992a49.888 49.888 0 0 1-61.056 35.248 49.76 49.76 0 0 1-35.2-60.992L767.28 86.8z" fill="#FCEEAF" p-id="1532"></path><path d="M631.472 976.992a49.888 49.888 0 0 1-61.056 35.248 49.76 49.76 0 0 1-35.2-60.992L767.28 86.8a49.888 49.888 0 0 1 61.056-35.248 49.76 49.76 0 0 1 35.2 60.976L631.488 976.992z m-23.2-6.208L840.4 106.336a25.84 25.84 0 0 0-0.32-14.496 25.888 25.888 0 0 0-5.536-9.6 25.696 25.696 0 0 0-22.624-8.16 25.76 25.76 0 0 0-13.888 6.512 25.76 25.76 0 0 0-7.52 12.4L558.384 957.456a25.856 25.856 0 0 0 0.32 14.48 25.84 25.84 0 0 0 47.264 4.64c0.992-1.808 1.76-3.744 2.32-5.792z" fill="#000000" p-id="1533"></path><path d="M489.312 661.056c17.088-63.68 104.224-95.68 194.592-71.52 90.384 24.16 149.792 95.36 132.704 159.04-17.104 63.68-104.224 95.68-194.608 71.52-90.368-24.16-149.792-95.36-132.688-159.04z" fill="#F96E55" p-id="1534"></path><path d="M683.904 589.536c90.384 24.16 149.792 95.36 132.704 159.04-17.104 63.68-104.224 95.68-194.608 71.52-90.368-24.16-149.792-95.36-132.688-159.04 17.088-63.68 104.224-95.68 194.592-71.52z m-6.224 23.184a205.856 205.856 0 0 0-59.248-7.184c-18.528 0.528-35.536 3.648-51.04 9.344-14.784 5.44-26.944 12.752-36.496 21.984a67.168 67.168 0 0 0-16.128 23.52 62.032 62.032 0 0 0-3.744 13.952 67.04 67.04 0 0 0 2.176 28.416c3.648 12.768 10.512 25.184 20.592 37.264 10.56 12.672 23.744 23.84 39.52 33.552a205.68 205.68 0 0 0 54.912 23.36c19.952 5.328 39.68 7.712 59.248 7.168 18.528-0.528 35.552-3.648 51.04-9.344 14.784-5.44 26.96-12.752 36.512-21.984a67.168 67.168 0 0 0 16.112-23.52 62.016 62.016 0 0 0 3.744-13.952 67.04 67.04 0 0 0-2.176-28.416c-3.648-12.752-10.512-25.184-20.592-37.264-10.56-12.656-23.744-23.84-39.52-33.552a205.68 205.68 0 0 0-54.912-23.36z" fill="#000000" p-id="1535"></path><path d="M546.048 449.712c17.104-63.68 104.224-95.696 194.608-71.52 90.384 24.16 149.792 95.36 132.688 159.04-17.088 63.664-104.208 95.68-194.592 71.52-90.384-24.16-149.792-95.376-132.704-159.04z" fill="#F96E55" p-id="1536"></path><path d="M740.64 378.176c90.4 24.16 149.808 95.376 132.704 159.04-17.088 63.68-104.208 95.696-194.592 71.52-90.384-24.16-149.792-95.36-132.704-159.04 17.104-63.664 104.224-95.68 194.608-71.52z m-6.208 23.2a205.856 205.856 0 0 0-59.248-7.184c-18.528 0.528-35.552 3.632-51.04 9.328-14.784 5.44-26.944 12.768-36.496 22a67.168 67.168 0 0 0-16.128 23.52 62.032 62.032 0 0 0-3.744 13.952 67.04 67.04 0 0 0 2.176 28.416c3.648 12.752 10.512 25.168 20.592 37.248 10.56 12.672 23.744 23.856 39.52 33.552a205.68 205.68 0 0 0 54.912 23.36c19.936 5.328 39.68 7.728 59.248 7.168 18.528-0.528 35.536-3.632 51.04-9.328 14.784-5.44 26.944-12.768 36.496-22a67.168 67.168 0 0 0 16.128-23.52 62.016 62.016 0 0 0 3.744-13.952 67.04 67.04 0 0 0-2.176-28.416c-3.648-12.752-10.512-25.168-20.592-37.248-10.56-12.672-23.744-23.84-39.52-33.552a205.68 205.68 0 0 0-54.912-23.36z" fill="#000000" p-id="1537"></path><path d="M602.368 547.136l173.408 46.368a39.744 39.744 0 0 1 28.112 48.704 39.84 39.84 0 0 1-48.752 28.16l-173.408-46.384a39.744 39.744 0 0 1-28.112-48.704 39.84 39.84 0 0 1 48.752-28.16z" fill="#FBEAA4" p-id="1538"></path><path d="M789.328 585.952a51.744 51.744 0 0 0-10.448-4.032l-173.408-46.368a51.776 51.776 0 0 0-29.776 0.88 51.872 51.872 0 0 0-24.512 17.328 51.52 51.52 0 0 0-10.896 29.488 51.424 51.424 0 0 0 6.88 28.224 51.728 51.728 0 0 0 21.008 20.08c3.296 1.696 6.768 3.04 10.448 4.032l173.408 46.368a51.776 51.776 0 0 0 29.776-0.896 51.872 51.872 0 0 0 24.512-17.328 51.552 51.552 0 0 0 10.464-38.944 51.296 51.296 0 0 0-6.464-18.752 51.296 51.296 0 0 0-20.992-20.08z m-190.08-27.232l173.408 46.368a27.456 27.456 0 0 1 16.88 12.944 27.552 27.552 0 0 1 2.768 21.088 27.488 27.488 0 0 1-12.96 16.864 27.632 27.632 0 0 1-21.088 2.784l-173.408-46.368a27.808 27.808 0 0 1-13.456-8.224 27.824 27.824 0 0 1 27.856-45.44z" fill="#000000" p-id="1539"></path><path d="M602.8 238.352c17.088-63.68 104.224-95.68 194.608-71.52 90.368 24.16 149.776 95.36 132.688 159.04-17.088 63.68-104.224 95.68-194.608 71.52-90.368-24.16-149.776-95.36-132.688-159.04z" fill="#F96E55" p-id="1540"></path><path d="M797.408 166.832c90.368 24.16 149.776 95.36 132.688 159.04-17.088 63.68-104.224 95.68-194.608 71.52-90.368-24.16-149.776-95.36-132.688-159.04 17.088-63.68 104.224-95.68 194.608-71.52z m-6.24 23.168a205.856 205.856 0 0 0-59.248-7.168c-18.528 0.528-35.52 3.648-51.04 9.344-14.768 5.44-26.944 12.752-36.48 21.984a67.168 67.168 0 0 0-16.128 23.52 62.032 62.032 0 0 0-3.744 13.952 67.04 67.04 0 0 0 2.16 28.416c3.664 12.768 10.528 25.184 20.608 37.264 10.56 12.672 23.744 23.84 39.52 33.552a205.68 205.68 0 0 0 54.896 23.36c19.952 5.328 39.696 7.712 59.264 7.168 18.528-0.528 35.52-3.648 51.04-9.344 14.784-5.44 26.944-12.752 36.48-21.984a67.168 67.168 0 0 0 16.128-23.52 62.016 62.016 0 0 0 3.744-13.952 67.04 67.04 0 0 0-2.16-28.416c-3.648-12.768-10.512-25.184-20.608-37.264-10.56-12.672-23.728-23.84-39.52-33.552a205.68 205.68 0 0 0-54.896-23.36z" fill="#000000" p-id="1541"></path><path d="M659.104 335.776l173.408 46.384a39.744 39.744 0 0 1 28.128 48.704 39.84 39.84 0 0 1-48.752 28.144L638.48 412.64a39.744 39.744 0 0 1-28.128-48.704 39.84 39.84 0 0 1 48.752-28.16z" fill="#FBEAA4" p-id="1542"></path><path d="M846.08 374.592a51.744 51.744 0 0 0-10.448-4.032l-173.408-46.368a51.776 51.776 0 0 0-29.776 0.896 51.872 51.872 0 0 0-24.528 17.328 51.52 51.52 0 0 0-10.88 29.472 51.424 51.424 0 0 0 6.88 28.224 51.728 51.728 0 0 0 20.992 20.08c3.296 1.712 6.784 3.04 10.448 4.032l173.408 46.368a51.776 51.776 0 0 0 29.792-0.88 51.872 51.872 0 0 0 24.512-17.328 51.552 51.552 0 0 0 10.448-38.944 51.296 51.296 0 0 0-6.448-18.768 51.296 51.296 0 0 0-20.992-20.08zM656 347.376l173.408 46.368a27.456 27.456 0 0 1 16.864 12.928 27.552 27.552 0 0 1 2.768 21.088 27.488 27.488 0 0 1-12.96 16.88 27.632 27.632 0 0 1-21.088 2.784L641.6 401.04a27.808 27.808 0 0 1-13.44-8.208A27.824 27.824 0 0 1 656 347.36z" fill="#000000" p-id="1543"></path></svg>