<?xml version="1.0" standalone="no"?><!DOCTYPE svg PUBLIC "-//W3C//DTD SVG 1.1//EN" "http://www.w3.org/Graphics/SVG/1.1/DTD/svg11.dtd"><svg t="1781005740618" class="icon" viewBox="0 0 1024 1024" version="1.1" xmlns="http://www.w3.org/2000/svg" p-id="1333" xmlns:xlink="http://www.w3.org/1999/xlink" width="64" height="64"><path d="M786.736 310.24m-24.976 0a24.976 24.976 0 1 0 49.952 0 24.976 24.976 0 1 0-49.952 0Z" fill="#FFFFFF" p-id="1334"></path><path d="M974.048 759.808H62.432c0 8.128 0.528 16.144 1.536 24 11.776 92.112 90.464 163.312 185.792 163.312h536.96c95.328 0 174.032-71.2 185.808-163.312 1.008-7.856 1.52-15.872 1.52-24z m-25.728 24H88.16q0.928 6.256 2.32 12.416 3.168 13.84 8.784 27.152 5.76 13.6 13.728 25.776 9.168 14.032 21.28 26.128 12.112 12.112 26.128 21.28 12.176 7.984 25.792 13.744 13.296 5.616 27.152 8.768 17.76 4.048 36.416 4.048h536.96q18.672 0 36.416-4.048 13.872-3.152 27.152-8.768 13.616-5.76 25.792-13.728 14.032-9.184 26.128-21.28 12.112-12.112 21.28-26.144 7.984-12.16 13.728-25.776 5.632-13.296 8.8-27.168 1.392-6.144 2.304-12.4z" fill="#050402" p-id="1335"></path><path d="M786.72 947.12c103.456 0 187.328-83.856 187.328-187.312H62.432c0 103.456 83.872 187.312 187.328 187.312h536.96z" fill="#FDBF62" p-id="1336"></path><path d="M86.432 759.808h887.616c0 8.128-0.512 16.144-1.52 24-11.776 92.112-90.48 163.312-185.792 163.312H249.76c-95.328 0-174.016-71.2-185.792-163.312a189.12 189.12 0 0 1-1.536-24h24z m1.728 24q0.928 6.256 2.32 12.416 3.168 13.856 8.784 27.152 5.76 13.6 13.728 25.776 9.168 14.032 21.28 26.128 12.112 12.112 26.128 21.28 12.176 7.984 25.792 13.744 13.296 5.616 27.152 8.768 17.76 4.048 36.416 4.048h536.96q18.672 0 36.432-4.048 13.856-3.152 27.136-8.768 13.616-5.76 25.792-13.728 14.032-9.184 26.128-21.28 12.112-12.112 21.28-26.144 7.984-12.16 13.728-25.776 5.632-13.296 8.8-27.152 1.392-6.16 2.304-12.416H88.16z" fill="#050402" p-id="1337"></path><path d="M93.664 672.384h849.168a56.192 56.192 0 0 1 0 112.4H674.224a160 160 0 0 0-76.08 19.248l-64.688 34.96a32 32 0 0 1-30.432 0l-64.688-34.96a160 160 0 0 0-76.08-19.248H93.664a56.192 56.192 0 0 1 0-112.4z" fill="#FEE566" p-id="1338"></path><path d="M942.832 672.384H93.664a56.192 56.192 0 0 0 0 112.4H362.24a160 160 0 0 1 76.08 19.248l64.688 34.96a32 32 0 0 0 30.432 0l64.688-34.96a160 160 0 0 1 76.08-19.248h268.608a56.192 56.192 0 0 0 0-112.4z m-849.168 24h849.168q3.888 0 7.584 0.896 2.512 0.608 4.944 1.632 2.56 1.088 4.88 2.576 2.88 1.856 5.36 4.32 2.464 2.48 4.32 5.36 1.488 2.32 2.592 4.896 1.024 2.416 1.632 4.944 0.88 3.68 0.88 7.568 0 3.904-0.896 7.584-0.592 2.528-1.632 4.96-1.088 2.56-2.56 4.88-1.872 2.88-4.336 5.344-2.48 2.48-5.36 4.32-2.304 1.504-4.88 2.592-2.432 1.024-4.96 1.632-3.68 0.896-7.568 0.896H674.224q-11.456 0-22.72 1.392-11.296 1.408-22.4 4.224-11.104 2.8-21.696 6.928-10.592 4.144-20.672 9.6l-64.688 34.944q-0.896 0.48-1.84 0.736-0.96 0.24-1.968 0.24t-1.952-0.24q-0.96-0.24-1.84-0.72l-64.688-34.976q-10.08-5.44-20.672-9.584-10.608-4.128-21.712-6.928-11.104-2.816-22.384-4.224-11.28-1.392-22.736-1.392H93.664q-3.904 0-7.584-0.896-2.528-0.608-4.96-1.632-2.56-1.088-4.88-2.576-2.88-1.856-5.344-4.32-2.48-2.48-4.32-5.36-1.504-2.32-2.592-4.896-1.024-2.416-1.632-4.944-0.896-3.68-0.896-7.584 0-3.888 0.896-7.568 0.608-2.528 1.632-4.96 1.088-2.56 2.576-4.88 1.856-2.88 4.32-5.344 2.48-2.48 5.36-4.32 2.32-1.504 4.896-2.592 2.416-1.024 4.944-1.632 3.68-0.896 7.584-0.896z" fill="#050402" p-id="1339"></path><path d="M118.64 560h799.2a81.168 81.168 0 0 1 0 162.336H118.656a81.168 81.168 0 1 1 0-162.336z" fill="#BE6E3D" p-id="1340"></path><path d="M917.856 560H118.64a81.168 81.168 0 1 0 0 162.336h799.2a81.168 81.168 0 1 0 0-162.336zM118.64 584h799.2q6.72 0 13.088 1.488 4.672 1.088 9.168 2.992 4.688 1.984 8.88 4.704 4.992 3.248 9.296 7.568 4.32 4.304 7.568 9.296 2.72 4.192 4.704 8.88 1.904 4.48 2.992 9.168 1.488 6.368 1.488 13.072 0 6.72-1.488 13.072-1.088 4.688-2.992 9.184-1.984 4.672-4.704 8.864-3.248 5.008-7.568 9.312-4.304 4.32-9.296 7.552-4.192 2.72-8.88 4.704-4.48 1.904-9.168 2.992-6.368 1.488-13.072 1.488H118.64q-6.72 0-13.072-1.488-4.688-1.088-9.184-2.992-4.672-1.968-8.864-4.704-5.008-3.248-9.312-7.552-4.32-4.32-7.552-9.312-2.72-4.192-4.704-8.864-1.92-4.496-2.992-9.184-1.504-6.352-1.504-13.072 0-6.72 1.488-13.072 1.104-4.672 3.008-9.168 1.968-4.688 4.704-8.88 3.248-4.992 7.552-9.296 4.32-4.32 9.312-7.568 4.192-2.72 8.864-4.704 4.496-1.904 9.184-2.992 6.352-1.488 13.072-1.488z" fill="#050402" p-id="1341"></path><path d="M143.616 472.592h749.264a81.168 81.168 0 0 1 0 162.336H143.6a81.168 81.168 0 1 1 0-162.336z" fill="#FE715F" p-id="1342"></path><path d="M892.88 472.592H143.6a81.168 81.168 0 1 0 0 162.336h749.28a81.168 81.168 0 1 0 0-162.336z m-749.28 24h749.28q6.72 0 13.072 1.488 4.672 1.088 9.168 2.992 4.688 1.968 8.88 4.704 4.992 3.248 9.296 7.552 4.32 4.32 7.568 9.312 2.72 4.192 4.704 8.864 1.904 4.496 2.992 9.184 1.488 6.352 1.488 13.072 0 6.72-1.488 13.072-1.088 4.672-2.992 9.168-1.984 4.672-4.704 8.88-3.248 4.992-7.568 9.296-4.304 4.32-9.296 7.568-4.192 2.72-8.88 4.704-4.48 1.888-9.168 2.992-6.368 1.488-13.072 1.488H143.6q-6.704 0-13.056-1.488-4.688-1.104-9.184-2.992-4.672-1.984-8.864-4.704-5.008-3.248-9.312-7.568-4.32-4.304-7.552-9.296-2.72-4.208-4.704-8.88-1.92-4.48-3.008-9.168-1.488-6.368-1.488-13.072 0-6.72 1.488-13.072 1.104-4.688 3.008-9.184 1.968-4.672 4.704-8.864 3.248-5.008 7.552-9.312 4.32-4.32 9.312-7.552 4.192-2.72 8.864-4.704 4.496-1.92 9.184-3.008 6.352-1.488 13.072-1.488z" fill="#050402" p-id="1343"></path><path d="M76.272 410.144h871.456A76.272 76.272 0 0 1 1024 486.416c0 53.52-53.696 90.4-103.648 71.184l-19.616-7.552a64.432 64.432 0 0 0-68.688 14.576 64.416 64.416 0 0 1-74.368 12.08l-33.6-16.8a116.56 116.56 0 0 0-100.368-1.872l-23.184 10.544a146.336 146.336 0 0 1-126-2.336 146.32 146.32 0 0 0-125.984-2.336l-13.072 5.952a132.368 132.368 0 0 1-119.056-4.8l-17.12-9.504a90.432 90.432 0 0 0-76.4-5.36l-19.248 7.408C53.696 576.8 0 539.936 0 486.4a76.272 76.272 0 0 1 76.272-76.256z" fill="#92D86C" p-id="1344"></path><path d="M947.728 410.144H76.272A76.272 76.272 0 0 0 0 486.416c0 53.52 53.696 90.4 103.648 71.184l19.248-7.408a90.432 90.432 0 0 1 76.384 5.36l17.12 9.504a132.368 132.368 0 0 0 119.072 4.8l13.072-5.952a146.32 146.32 0 0 1 126 2.336 146.336 146.336 0 0 0 125.984 2.336l23.2-10.544a116.56 116.56 0 0 1 100.352 1.856l33.6 16.8a64.416 64.416 0 0 0 74.368-12.064 64.432 64.432 0 0 1 68.688-14.56l19.616 7.52C970.304 576.832 1024 539.952 1024 486.432a76.272 76.272 0 0 0-76.272-76.272z m-871.456 24h871.456q6.16 0 12 1.376 4.256 0.992 8.336 2.72 4.272 1.808 8.096 4.288 4.576 2.976 8.528 6.928 3.952 3.952 6.928 8.528 2.48 3.84 4.288 8.096 1.728 4.08 2.72 8.336 1.376 5.84 1.376 12 0 8.272-2.368 15.792-1.472 4.72-3.888 9.136-2.56 4.72-5.952 8.72-4.496 5.344-10.464 9.44-5.968 4.096-12.576 6.4-4.96 1.712-10.272 2.4-4.992 0.672-9.92 0.352-7.872-0.48-15.584-3.456l-19.632-7.552q-6.304-2.432-12.848-3.84-5.984-1.328-12.16-1.792-6.176-0.48-12.32-0.08-6.4 0.4-12.768 1.76-6.352 1.344-12.384 3.568-5.76 2.144-11.2 5.088-5.456 2.928-10.4 6.56-5.392 3.968-10.176 8.752-2.544 2.528-5.44 4.56-2.304 1.6-4.848 2.896-2.64 1.344-5.408 2.272-3.12 1.056-6.416 1.584-3.296 0.528-6.592 0.528-2.928 0-5.84-0.448-2.816-0.416-5.536-1.216-3.376-1.008-6.592-2.608l-33.6-16.8q-7.296-3.648-14.88-6.4-7.168-2.608-14.608-4.432-7.456-1.824-15.04-2.816-7.808-1.024-15.728-1.168-7.936-0.16-15.792 0.592-7.6 0.704-15.12 2.256-7.488 1.536-14.736 3.872-7.712 2.48-15.12 5.856l-23.2 10.528q-12.592 5.728-25.824 8.48-13.216 2.72-27.056 2.464-13.84-0.256-26.944-3.472-13.12-3.232-25.504-9.408-8.832-4.432-18.064-7.776-8.656-3.136-17.664-5.344-9.024-2.208-18.192-3.408-9.488-1.248-19.088-1.44-9.616-0.16-19.136 0.72-9.2 0.88-18.32 2.752-9.072 1.856-17.856 4.688-9.344 2.992-18.336 7.088l-13.072 5.936q-11.728 5.344-24.032 7.744-12.288 2.4-25.168 1.888-12.88-0.512-24.944-3.904-12.064-3.392-23.328-9.648l-17.12-9.52q-11.12-6.16-23.008-9.696-11.888-3.52-24.576-4.416-12.672-0.896-24.944 0.96-12.272 1.824-24.128 6.4l-19.264 7.392q-7.712 2.96-15.584 3.456-4.928 0.32-9.92-0.336-5.312-0.704-10.272-2.432-6.608-2.288-12.576-6.4-5.968-4.096-10.464-9.424-3.392-4-5.952-8.72-2.4-4.416-3.888-9.12-2.368-7.536-2.368-15.808 0-6.16 1.376-12 0.992-4.256 2.72-8.336 1.808-4.272 4.288-8.096 2.976-4.576 6.928-8.528 3.952-3.952 8.528-6.928 3.824-2.48 8.096-4.288 4.08-1.728 8.336-2.72 5.84-1.376 12-1.376z" fill="#050402" p-id="1345"></path><path d="M512 48C324.896 48 162.432 140 80.864 274.912c-59.424 98.304 37.232 197.68 152.112 197.68h558.048c114.88 0 211.536-99.36 152.112-197.68C861.568 140 699.104 48 512 48z" fill="#FDBF62" p-id="1346"></path><path d="M512 48C324.896 48 162.432 140 80.864 274.912c-59.424 98.304 37.232 197.68 152.112 197.68h558.048c114.88 0 211.536-99.36 152.112-197.68C861.568 140 699.104 48 512 48z m-106.976 34.736Q457.408 72 512 72q54.576 0 106.96 10.736 11.072 2.272 22.032 5.024 53.264 13.344 101.264 37.248 6.816 3.392 13.536 6.992 52.976 28.48 95.52 68.096 42.464 39.568 71.28 87.232 14.272 23.6 14.608 47.392 0.064 4.976-0.48 9.968v0.24q-1.472 13.168-7.2 25.888-5.76 12.768-15.472 24.384-9.824 11.728-22.992 21.44-13.392 9.888-29.232 16.96-1.872 0.848-3.744 1.632-14.512 6.064-30.144 9.44-8.992 1.92-18.08 2.896-9.36 1.024-18.832 1.024H232.976q-9.472 0-18.832-1.024-9.088-0.96-18.08-2.912-15.632-3.36-30.144-9.44-1.888-0.768-3.744-1.6-15.84-7.088-29.232-16.96-13.168-9.728-22.992-21.44-9.728-11.632-15.472-24.4-5.728-12.72-7.2-25.888v-0.224q-0.544-5.008-0.48-9.984 0.336-23.792 14.608-47.392 28.816-47.68 71.28-87.232 42.544-39.632 95.52-68.096 6.72-3.6 13.52-6.992 48.016-23.904 101.28-37.248 10.96-2.752 22.016-5.024z" fill="#050402" p-id="1347"></path><path d="M362.144 197.856m-24.976 0a24.976 24.976 0 1 0 49.952 0 24.976 24.976 0 1 0-49.952 0Z" fill="#FFFFFF" p-id="1348"></path><path d="M536.976 172.88m-24.976 0a24.976 24.976 0 1 0 49.952 0 24.976 24.976 0 1 0-49.952 0Z" fill="#FFFFFF" p-id="1349"></path><path d="M699.312 210.336m-24.976 0a24.976 24.976 0 1 0 49.952 0 24.976 24.976 0 1 0-49.952 0Z" fill="#FFFFFF" p-id="1350"></path><path d="M611.904 285.264m-24.976 0a24.976 24.976 0 1 0 49.952 0 24.976 24.976 0 1 0-49.952 0Z" fill="#FFFFFF" p-id="1351"></path><path d="M262.24 272.784m-24.976 0a24.976 24.976 0 1 0 49.952 0 24.976 24.976 0 1 0-49.952 0Z" fill="#FFFFFF" p-id="1352"></path><path d="M437.072 285.264m-24.976 0a24.976 24.976 0 1 0 49.952 0 24.976 24.976 0 1 0-49.952 0Z" fill="#FFFFFF" p-id="1353"></path></svg>