<?xml version="1.0" standalone="no"?><!DOCTYPE svg PUBLIC "-//W3C//DTD SVG 1.1//EN" "http://www.w3.org/Graphics/SVG/1.1/DTD/svg11.dtd"><svg t="1781005859331" class="icon" viewBox="0 0 1024 1024" version="1.1" xmlns="http://www.w3.org/2000/svg" p-id="2060" xmlns:xlink="http://www.w3.org/1999/xlink" width="64" height="64"><path d="M139.307076 123.417731m31.645281-4.751443l50.347641-7.559545q31.645281-4.751443 36.396724 26.893838l102.631158 683.538065q4.751443 31.645281-26.893838 36.396723l-50.347642 7.559545q-31.645281 4.751443-36.396723-26.893838l-102.631158-683.538065q-4.751443-31.645281 26.893838-36.396723Z" fill="#FEE861" p-id="2061"></path><path d="M221.296 111.104a32 32 0 0 1 36.4 26.896l102.624 683.52a32 32 0 0 1-26.88 36.4l-50.352 7.568a32 32 0 0 1-36.4-26.88L144.064 155.04a32 32 0 0 1 26.88-36.384l50.352-7.568z m3.568 23.728l-50.352 7.568a7.952 7.952 0 0 0-6.72 9.104l102.624 683.52a7.968 7.968 0 0 0 3.152 5.248 7.952 7.952 0 0 0 5.952 1.488l50.352-7.568a7.952 7.952 0 0 0 6.72-9.104l-102.624-683.52a7.952 7.952 0 0 0-9.12-6.72z" fill="#000000" p-id="2062"></path><path d="M221.228552 44.366866m31.64528-4.751442l50.347642-7.559545q31.645281-4.751443 36.396723 26.893838l102.631159 683.538064q4.751443 31.645281-26.893839 36.396723l-50.347641 7.559545q-31.645281 4.751443-36.396724-26.893838l-102.631158-683.538064q-4.751443-31.645281 26.893838-36.396723Z" fill="#FEE861" p-id="2063"></path><path d="M303.216 32.064a32 32 0 0 1 36.4 26.88l102.624 683.536a32 32 0 0 1-26.88 36.4l-50.352 7.552a32 32 0 0 1-36.4-26.88L225.984 76a32 32 0 0 1 26.88-36.4l50.352-7.552z m3.568 23.728l-50.352 7.552a7.952 7.952 0 0 0-6.72 9.12l102.624 683.52a7.968 7.968 0 0 0 3.152 5.248 7.952 7.952 0 0 0 5.952 1.472l50.352-7.552a7.952 7.952 0 0 0 6.72-9.12l-102.624-683.52a7.952 7.952 0 0 0-9.12-6.72z" fill="#000302" p-id="2064"></path><path d="M485.328 0.576l50.912-0.352A32 32 0 0 1 568.48 32l4.752 691.168a32 32 0 0 1-31.792 32.224l-50.896 0.352a32 32 0 0 1-32.224-31.776l-4.752-691.184A32 32 0 0 1 485.328 0.576z" fill="#FEE861" p-id="2065"></path><path d="M536.24 0.224A32 32 0 0 1 568.48 32l4.752 691.168a32 32 0 0 1-31.792 32.224l-50.896 0.352a32 32 0 0 1-32.224-31.776l-4.752-691.184A32 32 0 0 1 485.328 0.576l50.912-0.352z m0.16 24l-50.896 0.352a7.936 7.936 0 0 0-5.648 2.384 7.936 7.936 0 0 0-2.304 5.664l4.752 691.184a7.952 7.952 0 0 0 8.048 7.936l50.912-0.352a7.952 7.952 0 0 0 7.952-8.048L544.464 32.16a7.952 7.952 0 0 0-8.064-7.936z" fill="#000302" p-id="2066"></path><path d="M588.064 55.568l50.688 4.816a32 32 0 0 1 28.832 34.88L602.192 783.36a32 32 0 0 1-34.88 28.832l-50.688-4.816a32 32 0 0 1-28.832-34.88l65.392-688.096a32 32 0 0 1 34.88-28.832z" fill="#FEE861" p-id="2067"></path><path d="M638.752 60.384a32 32 0 0 1 28.832 34.88L602.192 783.36a32 32 0 0 1-34.88 28.832l-50.688-4.816a32 32 0 0 1-28.832-34.88l65.392-688.096a32 32 0 0 1 34.88-28.832l50.688 4.816z m-2.272 23.888l-50.688-4.8a7.936 7.936 0 0 0-5.856 1.792 7.936 7.936 0 0 0-2.864 5.408l-65.376 688.096a7.952 7.952 0 0 0 0.288 3.104c0.304 0.976 0.8 1.888 1.504 2.752a7.952 7.952 0 0 0 5.408 2.864l50.688 4.8a7.952 7.952 0 0 0 8.72-7.2L643.68 92.992a7.952 7.952 0 0 0-7.2-8.72z" fill="#000302" p-id="2068"></path><path d="M745.392 20.064l49.872 10.224a32 32 0 0 1 24.944 37.76l-138.656 677.152a32 32 0 0 1-37.76 24.928l-49.888-10.208a32 32 0 0 1-24.928-37.76l138.656-677.152a32 32 0 0 1 37.76-24.944z" fill="#FEE861" p-id="2069"></path><path d="M795.264 30.288a32 32 0 0 1 24.944 37.76l-138.656 677.152a32 32 0 0 1-37.76 24.928l-49.888-10.208a32 32 0 0 1-24.928-37.76l138.656-677.152a32 32 0 0 1 37.76-24.944l49.872 10.224z m-4.8 23.52l-49.888-10.224a7.936 7.936 0 0 0-6.016 1.168 7.936 7.936 0 0 0-3.424 5.072l-138.64 677.136a7.936 7.936 0 0 0 3.344 8.256c0.832 0.576 1.808 0.96 2.88 1.184l49.872 10.208a7.952 7.952 0 0 0 9.44-6.24l138.656-677.12a7.952 7.952 0 0 0-6.24-9.44z" fill="#000302" p-id="2070"></path><path d="M447.648 156.32l50.336-7.568a32 32 0 0 1 36.4 26.88L637.024 859.2a32 32 0 0 1-26.896 36.384l-50.352 7.568a32 32 0 0 1-36.4-26.896l-102.624-683.52a32 32 0 0 1 26.88-36.416z" fill="#FEE861" p-id="2071"></path><path d="M497.984 148.752a32 32 0 0 1 36.4 26.88L637.024 859.2a32 32 0 0 1-26.896 36.384l-50.352 7.568a32 32 0 0 1-36.4-26.896l-102.624-683.52a32 32 0 0 1 26.88-36.416l50.352-7.552z m3.568 23.728l-50.336 7.568a7.936 7.936 0 0 0-5.248 3.152 7.936 7.936 0 0 0-1.488 5.952l102.64 683.52c0.16 1.088 0.496 2.08 1.024 2.96a7.968 7.968 0 0 0 2.128 2.288 7.952 7.952 0 0 0 5.936 1.472l50.352-7.552a7.952 7.952 0 0 0 6.72-9.104l-102.624-683.52a7.952 7.952 0 0 0-9.104-6.72z" fill="#000302" p-id="2072"></path><path d="M679.296 131.04l50.688 4.8a32 32 0 0 1 28.832 34.88l-65.392 688.096a32 32 0 0 1-34.88 28.832l-50.688-4.8a32 32 0 0 1-28.832-34.896L644.416 159.84a32 32 0 0 1 34.88-28.832z" fill="#FEE861" p-id="2073"></path><path d="M729.984 135.84a32 32 0 0 1 28.832 34.88l-65.392 688.096a32 32 0 0 1-34.88 28.832l-50.688-4.8a32 32 0 0 1-28.832-34.896L644.416 159.84a32 32 0 0 1 34.88-28.832l50.688 4.816z m-2.272 23.888l-50.688-4.8a7.936 7.936 0 0 0-5.856 1.792 7.936 7.936 0 0 0-2.864 5.408l-65.376 688.096a7.952 7.952 0 0 0 0.288 3.104c0.304 0.976 0.8 1.888 1.504 2.752a7.952 7.952 0 0 0 5.408 2.864l50.688 4.8a7.952 7.952 0 0 0 8.72-7.2l65.376-688.08a7.952 7.952 0 0 0-7.2-8.736z" fill="#000302" p-id="2074"></path><path d="M813.664 129.296l49.872 10.208a32 32 0 0 1 24.928 37.76l-138.64 677.152a32 32 0 0 1-37.76 24.944l-49.888-10.224a32 32 0 0 1-24.928-37.76l138.64-677.152a32 32 0 0 1 37.76-24.928z" fill="#FEE861" p-id="2075"></path><path d="M863.536 139.52a32 32 0 0 1 24.928 37.76L749.824 854.4a32 32 0 0 1-37.76 24.944l-49.888-10.224a32 32 0 0 1-24.928-37.76l138.64-677.152a32 32 0 0 1 37.76-24.928l49.888 10.208z m-4.8 23.504l-49.888-10.208a7.936 7.936 0 0 0-6.016 1.168 7.936 7.936 0 0 0-3.424 5.056l-138.656 677.152a7.936 7.936 0 0 0 3.36 8.256c0.832 0.56 1.792 0.96 2.88 1.184l49.872 10.208a7.952 7.952 0 0 0 9.44-6.24L864.96 172.48a7.952 7.952 0 0 0-6.24-9.44z" fill="#000302" p-id="2076"></path><path d="M320.004476 81.064315m31.645281-4.751442l50.347642-7.559545q31.645281-4.751443 36.396723 26.893838l102.631159 683.538064q4.751443 31.645281-26.893839 36.396723l-50.347641 7.559545q-31.645281 4.751443-36.396724-26.893838l-102.631158-683.538064q-4.751443-31.645281 26.893838-36.396723Z" fill="#FEE861" p-id="2077"></path><path d="M401.984 68.752a32 32 0 0 1 36.4 26.88L541.024 779.2a32 32 0 0 1-26.896 36.384l-50.352 7.568a32 32 0 0 1-36.4-26.896l-102.624-683.52a32 32 0 0 1 26.88-36.416l50.352-7.552z m3.568 23.728l-50.336 7.568a7.952 7.952 0 0 0-6.72 9.104l102.624 683.52c0.16 1.088 0.496 2.08 1.024 2.96a7.968 7.968 0 0 0 2.128 2.288 7.952 7.952 0 0 0 5.936 1.472l50.352-7.552a7.952 7.952 0 0 0 6.72-9.104l-102.624-683.52a7.952 7.952 0 0 0-9.104-6.72z" fill="#000302" p-id="2078"></path><path d="M144 336h97.6s105.6 156.8 270.4 156.8c164.8 0 268.8-156.8 268.8-156.8H864c19.2 0 33.6 16 32 35.2l-56 568c-4.8 41.6-44.8 68.8-84.8 57.6-62.4-14.4-152-32-243.2-32-91.2 0-182.4 17.6-244.8 33.6-40 9.6-80-16-84.8-57.6L112 371.2C110.4 352 124.8 336 144 336z" fill="#000000" p-id="2079"></path><path d="M144 360h84.8c3.2 4.8 8 11.2 12.8 16 14.4 16 28.8 32 44.8 46.4 3.2 3.2 8 6.4 12.8 11.2 28.8 24 59.2 43.2 91.2 57.6 33.6 14.4 67.2 24 102.4 25.6h38.4c33.6-1.6 68.8-11.2 102.4-25.6 32-14.4 60.8-33.6 91.2-57.6 4.8-3.2 8-6.4 12.8-11.2 16-14.4 30.4-30.4 44.8-46.4 4.8-4.8 9.6-11.2 12.8-16h72c1.6 0 1.6 1.6 3.2 1.6 0 1.6 1.6 1.6 1.6 3.2v3.2L816 936c0 3.2-1.6 6.4-1.6 9.6-1.6 3.2-1.6 4.8-3.2 8-1.6 1.6-1.6 3.2-3.2 4.8l-9.6 9.6c-3.2 1.6-4.8 3.2-8 4.8-3.2 1.6-6.4 1.6-9.6 3.2-3.2 0-6.4 1.6-9.6 0-3.2 0-6.4 0-9.6-1.6-38.4-9.6-75.2-17.6-113.6-22.4-48-8-94.4-11.2-136-11.2-43.2 0-88 3.2-137.6 11.2-36.8 6.4-75.2 12.8-113.6 22.4-3.2 0-6.4 1.6-9.6 1.6h-9.6c-3.2 0-6.4-1.6-9.6-3.2-3.2-1.6-4.8-3.2-8-4.8-3.2-3.2-6.4-4.8-9.6-9.6-1.6-1.6-1.6-3.2-3.2-4.8-1.6-3.2-3.2-4.8-3.2-8-1.6-3.2-1.6-6.4-1.6-9.6L136 369.6v-3.2c0-1.6 1.6-1.6 1.6-3.2s1.6-1.6 3.2-1.6c1.6-1.6 1.6-1.6 3.2-1.6z" fill="#FE715F" p-id="2080"></path><path d="M371.408 723.632a136.528 136.528 0 1 1 273.072 0 136.528 136.528 0 0 1-273.072 0z" fill="#FCD850" p-id="2081"></path><path d="M507.952 587.088a136.528 136.528 0 1 1 0 273.072 136.528 136.528 0 0 1 0-273.072z m0 24a111.552 111.552 0 0 0-43.792 8.832 112.64 112.64 0 0 0-35.776 24.128 112.72 112.72 0 0 0-24.144 35.776 112.496 112.496 0 0 0-8.832 43.792 111.456 111.456 0 0 0 8.832 43.792c2.64 6.24 5.776 12.144 9.408 17.712 4.24 6.464 9.136 12.48 14.72 18.08a112.16 112.16 0 0 0 79.568 32.96 111.584 111.584 0 0 0 43.792-8.832 112.176 112.176 0 0 0 35.792-24.128 112.208 112.208 0 0 0 32.96-79.568 111.76 111.76 0 0 0-18.24-61.488 112.72 112.72 0 0 0-14.72-18.08 112.72 112.72 0 0 0-35.776-24.144 111.616 111.616 0 0 0-43.792-8.832z" fill="#050402" p-id="2082"></path></svg>